<?xml version="1.0" standalone="no"?>
<!DOCTYPE svg PUBLIC "-//W3C//DTD SVG 20010904//EN"
 "http://www.w3.org/TR/2001/REC-SVG-20010904/DTD/svg10.dtd">
<svg version="1.0" xmlns="http://www.w3.org/2000/svg"
 width="512.000000pt" height="512.000000pt" viewBox="0 0 512.000000 512.000000"
 preserveAspectRatio="xMidYMid meet">
<metadata>
Created by potrace 1.14, written by Peter Selinger 2001-2017
</metadata>
<g transform="translate(0.000000,512.000000) scale(0.100000,-0.100000)"
fill="#000000" stroke="none">
<path d="M2421 4920 c-177 -64 -322 -214 -388 -401 -22 -64 -26 -91 -26 -199
-1 -110 2 -134 25 -198 64 -179 193 -319 355 -386 32 -13 66 -27 76 -30 14 -4
17 -18 17 -85 0 -76 -2 -82 -36 -128 -102 -134 -317 -297 -626 -471 -111 -63
-367 -224 -448 -282 -330 -235 -505 -487 -556 -800 -12 -79 -13 -387 -1 -407
3 -5 8 -30 11 -58 14 -103 58 -248 110 -361 32 -68 109 -201 125 -214 3 -3 23
-26 43 -51 l37 -46 -87 -5 c-100 -6 -158 -33 -203 -96 -41 -57 -49 -103 -49
-295 0 -204 7 -232 63 -242 17 -3 794 -4 1725 -3 l1693 3 19 25 c18 23 20 43
20 212 0 250 -16 296 -124 366 -33 20 -56 26 -128 30 l-88 5 39 46 c63 76 111
151 156 246 105 219 144 410 140 680 -2 136 -6 175 -29 260 -47 179 -143 347
-278 485 -152 156 -253 229 -618 450 -8 5 -73 44 -145 86 -307 180 -481 316
-576 447 -25 35 -29 49 -29 109 0 64 1 68 23 69 100 4 216 38 306 91 86 51
191 163 233 250 70 144 76 177 41 218 -34 41 -66 39 -139 -9 -192 -124 -433
-76 -556 111 -48 72 -59 109 -63 203 -5 92 13 154 70 247 41 66 43 90 10 123
-30 31 -69 32 -144 5z"/>
</g>
</svg>
